<svg width="173" height="177" viewBox="0 0 173 177" fill="none" xmlns="http://www.w3.org/2000/svg">
<mask id="path-1-inside-1" fill="white">
<path d="M59.9141 17.933C56.4529 20.4707 53.822 23.9777 52.3539 28.0106C51.3715 30.6868 50.9297 33.5312 51.0541 36.3793C51.1785 39.2273 51.8665 42.0224 53.0785 44.6027C55.0908 48.0352 57.5012 51.2181 60.2597 54.0855L95.7808 90.2408L131.302 54.0856C134.06 51.2175 136.47 48.0346 138.483 44.6027C139.69 42.0197 140.376 39.224 140.503 36.3757C140.629 33.5273 140.192 30.6819 139.218 28.0023C138.244 25.3227 136.751 22.8613 134.825 20.7589C132.9 18.6564 130.578 16.9541 127.994 15.7492C125.41 14.5443 122.614 13.8605 119.765 13.7368C116.917 13.6132 114.072 14.0521 111.393 15.0285C108.714 16.0048 106.254 17.4996 104.153 19.4272C102.053 21.3549 100.352 23.6776 99.1496 26.2627C98.7113 27.2666 98.3656 28.3084 98.1168 29.3751C97.9864 29.8959 97.6857 30.3582 97.2625 30.6885C96.8392 31.0189 96.3177 31.1983 95.7808 31.1983C95.2439 31.1983 94.7224 31.0189 94.2992 30.6885C93.8759 30.3582 93.5752 29.8959 93.4448 29.3751C93.196 28.3084 92.8503 27.2666 92.412 26.2627C90.5983 22.373 87.6718 19.1085 84.0028 16.882C80.3337 14.6554 76.0868 13.5669 71.799 13.754C67.5113 13.941 63.3753 15.3954 59.9141 17.933Z"/>
<path d="M39.9139 138.393C42.7609 138.269 45.5555 137.585 48.1382 136.38C51.2878 134.556 54.2128 132.368 56.8536 129.863L92.4041 93.678L56.8536 57.4928C54.2115 54.9892 51.2867 52.802 48.1382 50.9755C45.5552 49.7686 42.7596 49.0825 39.9113 48.9565C37.063 48.8305 34.2177 49.267 31.5382 50.2412C28.8587 51.2153 26.3974 52.708 24.295 54.6338C22.1926 56.5596 20.4904 58.8809 19.2855 61.4649C18.0807 64.0489 17.3969 66.8451 17.2732 69.6935C17.1495 72.5419 17.5883 75.3868 18.5647 78.0655C19.541 80.7443 21.0356 83.2043 22.9631 85.3052C24.8907 87.406 27.2157 89.1064 29.8007 90.3091C30.8025 90.7485 31.8428 91.0942 32.9082 91.3419C33.4291 91.4723 33.8913 91.773 34.2217 92.1962C34.552 92.6195 34.7314 93.141 34.7314 93.6779C34.7314 94.2148 34.552 94.7362 34.2217 95.1595C33.8913 95.5827 33.4291 95.8835 32.9082 96.0139C31.8415 96.2628 30.7998 96.6085 29.7959 97.0466C24.5799 99.479 20.5438 103.884 18.5755 109.292C16.6072 114.7 16.8679 120.669 19.3002 125.885C21.7326 131.101 26.1373 135.137 31.5455 137.105C34.2234 138.08 37.067 138.517 39.9139 138.393Z"/>
<path d="M111.398 172.303C116.804 174.271 122.769 174.014 127.986 171.59C133.198 169.153 137.23 164.748 139.198 159.342C141.165 153.936 140.909 147.97 138.483 142.753C136.464 139.314 134.048 136.125 131.283 133.251L95.7808 97.1151L60.2782 133.251C57.5136 136.124 55.097 139.313 53.0785 142.751C51.8741 145.334 51.1902 148.128 51.0658 150.975C50.9415 153.822 51.3791 156.666 52.3537 159.344C54.322 164.752 58.3581 169.157 63.574 171.589C66.1567 172.793 68.9513 173.477 71.7983 173.602C74.6453 173.726 77.4889 173.288 80.1667 172.314C82.8446 171.339 85.3043 169.847 87.4053 167.921C89.5064 165.996 91.2077 163.676 92.412 161.093C92.8503 160.09 93.196 159.049 93.4448 157.983C93.5746 157.462 93.8751 156.999 94.2984 156.668C94.7218 156.338 95.2436 156.158 95.7808 156.158C96.318 156.158 96.8399 156.338 97.2632 156.668C97.6865 156.999 97.987 157.462 98.1168 157.983C98.3656 159.049 98.7113 160.09 99.1496 161.093C101.587 166.304 105.992 170.335 111.398 172.303Z"/>
<path d="M167.254 132.712C169.355 130.787 171.056 128.466 172.26 125.884C173.465 123.301 174.148 120.506 174.273 117.659C174.397 114.812 173.959 111.969 172.985 109.291C172.01 106.613 170.517 104.154 168.592 102.053C166.666 99.9518 164.346 98.2507 161.763 97.0466C160.759 96.6088 159.718 96.2631 158.651 96.0139C158.13 95.8835 157.668 95.5827 157.338 95.1595C157.007 94.7362 156.828 94.2148 156.828 93.6779C156.828 93.141 157.007 92.6195 157.338 92.1962C157.668 91.773 158.13 91.4723 158.651 91.3418C159.718 91.093 160.76 90.7473 161.763 90.3091C164.346 89.1049 166.666 87.4038 168.592 85.3029C170.517 83.202 172.009 80.7424 172.984 78.0647C173.959 75.3869 174.397 72.5434 174.272 69.6965C174.148 66.8496 173.464 64.055 172.26 61.4723C171.056 58.8896 169.355 56.5694 167.254 54.6442C165.153 52.7189 162.694 51.2263 160.016 50.2516C154.608 48.2831 148.639 48.5435 143.423 50.9755C140.275 52.802 137.35 54.9893 134.708 57.4929L99.1575 93.678L134.708 129.863C137.349 132.367 140.273 134.555 143.421 136.38C146.004 137.585 148.799 138.269 151.646 138.393C154.493 138.518 157.337 138.08 160.015 137.105C162.693 136.13 165.153 134.638 167.254 132.712Z"/>
</mask>
<path d="M177.511 107.645L177.041 107.814L177.041 107.816L177.511 107.645ZM165.732 93.678L165.484 93.2437L164.72 93.6794L165.486 94.113L165.732 93.678ZM162.539 46.0602L162.352 46.5237L162.352 46.5237L162.539 46.0602ZM143.207 45.8401L142.747 45.6439L142.287 46.7229L143.384 46.3078L143.207 45.8401ZM143.696 26.2569L144.165 26.0839L144.165 26.0839L143.696 26.2569ZM130.608 11.6811L130.83 11.2333L130.608 11.6811ZM111.085 10.0665L110.94 9.58823L110.94 9.58823L111.085 10.0665ZM95.7808 22.2941L95.3465 22.5418L95.7808 23.3032L96.2151 22.5418L95.7808 22.2941ZM80.4763 10.0653L80.3305 10.5436L80.3305 10.5436L80.4763 10.0653ZM60.9529 11.6797L61.1752 12.1276L61.1752 12.1276L60.9529 11.6797ZM47.8649 26.2562L47.3958 26.0832L47.3958 26.0832L47.8649 26.2562ZM48.3547 45.8401L48.1777 46.3078L49.275 46.723L48.8145 45.6439L48.3547 45.8401ZM29.0224 46.06L28.8348 45.5965L28.8348 45.5965L29.0224 46.06ZM14.9769 59.3458L14.5245 59.1328L14.5245 59.1328L14.9769 59.3458ZM13.6835 78.636L14.1602 78.4853L14.1602 78.4853L13.6835 78.636ZM25.8295 93.678L26.0773 94.1123L26.8386 93.678L26.0772 93.2437L25.8295 93.678ZM14.977 128.01L15.4294 127.797L15.4294 127.797L14.977 128.01ZM29.0224 141.296L28.8349 141.759L28.8349 141.759L29.0224 141.296ZM48.3547 141.516L48.8144 141.712L49.2761 140.633L48.1777 141.048L48.3547 141.516ZM47.4217 159.829L46.9444 159.978L46.9444 159.978L47.4217 159.829ZM58.5977 174.367L58.8642 173.944L58.8642 173.944L58.5977 174.367ZM76.5353 178.173L76.4635 177.679L76.4635 177.679L76.5353 178.173ZM113.696 177.935L113.599 178.425L113.599 178.425L113.696 177.935ZM132.19 174.823L131.938 174.391L131.938 174.391L132.19 174.823ZM143.207 141.516L143.384 141.048L142.286 140.633L142.747 141.712L143.207 141.516ZM158.085 142.657L157.982 142.168L157.982 142.168L158.085 142.657ZM171.224 135.584L170.873 135.229L170.873 135.229L171.224 135.584ZM178.464 122.536L177.976 122.426L177.976 122.426L178.464 122.536ZM177.981 107.475C175.809 101.45 171.551 96.4009 165.979 93.243L165.486 94.113C170.85 97.1531 174.949 102.014 177.041 107.814L177.981 107.475ZM165.98 94.1123C171.886 90.743 176.305 85.2705 178.355 78.7868L177.401 78.4854C175.428 84.7291 171.172 89.9991 165.484 93.2437L165.98 94.1123ZM178.355 78.7868C180.404 72.303 179.934 65.285 177.037 59.1329L176.132 59.5589C178.922 65.4833 179.375 72.2416 177.401 78.4854L178.355 78.7868ZM177.037 59.1329C174.14 52.9809 169.03 48.1473 162.727 45.5967L162.352 46.5237C168.422 48.9799 173.343 53.6346 176.132 59.5589L177.037 59.1329ZM162.727 45.5967C156.423 43.0461 149.39 42.966 143.03 45.3725L143.384 46.3078C149.508 43.9904 156.281 44.0674 162.352 46.5237L162.727 45.5967ZM143.667 46.0363C146.373 39.6928 146.551 32.5545 144.165 26.0839L143.227 26.4299C145.525 32.6611 145.353 39.5352 142.747 45.6439L143.667 46.0363ZM144.165 26.0839C141.778 19.6132 137.008 14.3002 130.83 11.2333L130.386 12.129C136.334 15.0824 140.928 20.1988 143.227 26.4299L144.165 26.0839ZM130.83 11.2333C124.653 8.16641 117.537 7.57785 110.94 9.58823L111.231 10.5448C117.584 8.60883 124.437 9.1756 130.386 12.129L130.83 11.2333ZM110.94 9.58823C104.342 11.5986 98.7637 16.0557 95.3465 22.0463L96.2151 22.5418C99.5058 16.7729 104.878 12.4808 111.231 10.5448L110.94 9.58823ZM96.2151 22.0464C92.7982 16.0553 87.2195 11.5977 80.6221 9.58707L80.3305 10.5436C86.6838 12.4799 92.056 16.7724 95.3465 22.5418L96.2151 22.0464ZM80.6221 9.58707C74.0246 7.57641 66.9081 8.16487 60.7305 11.2319L61.1752 12.1276C67.1241 9.17407 73.9773 8.60739 80.3305 10.5436L80.6221 9.58707ZM60.7305 11.2319C54.553 14.2989 49.7822 19.6122 47.3958 26.0832L48.334 26.4292C50.6321 20.1978 55.2263 15.0811 61.1752 12.1276L60.7305 11.2319ZM47.3958 26.0832C45.0093 32.5542 45.1878 39.6928 47.8948 46.0364L48.8145 45.6439C46.2078 39.5351 46.0359 32.6607 48.334 26.4292L47.3958 26.0832ZM48.5316 45.3725C42.1717 42.9659 35.1383 43.046 28.8348 45.5965L29.2099 46.5235C35.2801 44.0673 42.0532 43.9903 48.1777 46.3078L48.5316 45.3725ZM28.8348 45.5965C22.5313 48.1471 17.4213 52.9807 14.5245 59.1328L15.4293 59.5588C18.2188 53.6344 23.1397 48.9797 29.2099 46.5235L28.8348 45.5965ZM14.5245 59.1328C11.6277 65.2849 11.1572 72.303 13.2067 78.7867L14.1602 78.4853C12.1865 72.2416 12.6397 65.4832 15.4293 59.5588L14.5245 59.1328ZM13.2067 78.7867C15.2563 85.2705 19.6752 90.743 25.5818 94.1123L26.0772 93.2437C20.3893 89.9991 16.1339 84.7291 14.1602 78.4853L13.2067 78.7867ZM25.5818 93.2437C19.6752 96.613 15.2563 102.086 13.2068 108.569L14.1603 108.871C16.134 102.627 20.3893 97.3569 26.0773 94.1123L25.5818 93.2437ZM13.2068 108.569C11.1573 115.053 11.6279 122.071 14.5247 128.223L15.4294 127.797C12.6398 121.873 12.1866 115.114 14.1603 108.871L13.2068 108.569ZM14.5247 128.223C17.4214 134.375 22.5314 139.209 28.8349 141.759L29.21 140.832C23.1398 138.376 18.219 133.721 15.4294 127.797L14.5247 128.223ZM28.8349 141.759C35.1383 144.31 42.1717 144.39 48.5316 141.983L48.1777 141.048C42.0532 143.366 35.2801 143.289 29.21 140.832L28.8349 141.759ZM47.8949 141.319C45.3686 147.228 45.0316 153.843 46.9444 159.978L47.8991 159.68C46.0571 153.773 46.3816 147.402 48.8144 141.712L47.8949 141.319ZM46.9444 159.978C48.8572 166.113 52.8944 171.364 58.3311 174.79L58.8642 173.944C53.6288 170.645 49.741 165.588 47.8991 159.68L46.9444 159.978ZM58.3311 174.79C63.7678 178.216 70.2477 179.591 76.6071 178.668L76.4635 177.679C70.3396 178.567 64.0996 177.243 58.8642 173.944L58.3311 174.79ZM76.6071 178.668C82.9664 177.746 88.7886 174.587 93.0281 169.757L92.2766 169.098C88.1941 173.748 82.5875 176.79 76.4635 177.679L76.6071 178.668ZM97.3744 168.334C101.373 173.562 107.142 177.151 113.599 178.425L113.793 177.444C107.575 176.217 102.019 172.761 98.1688 167.727L97.3744 168.334ZM113.599 178.425C120.057 179.699 126.757 178.572 132.442 175.255L131.938 174.391C126.463 177.585 120.011 178.671 113.793 177.444L113.599 178.425ZM132.442 175.255C138.126 171.937 142.404 166.658 144.471 160.41L143.521 160.095C141.531 166.113 137.412 171.196 131.938 174.391L132.442 175.255ZM144.471 160.41C146.538 154.161 146.252 147.372 143.667 141.319L142.747 141.712C145.237 147.541 145.512 154.078 143.521 160.095L144.471 160.41ZM143.03 141.983C147.867 143.814 153.129 144.218 158.189 143.147L157.982 142.168C153.109 143.2 148.042 142.811 143.384 141.048L143.03 141.983ZM158.189 143.147C163.249 142.075 167.895 139.574 171.575 135.94L170.873 135.229C167.329 138.728 162.854 141.137 157.982 142.168L158.189 143.147ZM171.575 135.94C175.256 132.306 177.816 127.692 178.951 122.646L177.976 122.426C176.882 127.286 174.417 131.729 170.873 135.229L171.575 135.94ZM178.951 122.646C180.087 117.6 179.75 112.334 177.981 107.474L177.041 107.816C178.745 112.496 179.069 117.567 177.976 122.426L178.951 122.646ZM52.3539 28.0106L53.2926 28.3552L53.2936 28.3527L52.3539 28.0106ZM59.9141 17.933L59.3229 17.1266L59.3229 17.1266L59.9141 17.933ZM71.799 13.754L71.8426 14.753L71.8426 14.753L71.799 13.754ZM84.0028 16.882L84.5215 16.0271L84.5215 16.0271L84.0028 16.882ZM92.412 26.2627L93.3285 25.8626L93.3236 25.8513L93.3184 25.8401L92.412 26.2627ZM93.4448 29.3751L92.4709 29.6022L92.4728 29.6101L92.4747 29.618L93.4448 29.3751ZM94.2992 30.6885L94.9144 29.9002L94.9144 29.9002L94.2992 30.6885ZM97.2625 30.6885L96.6472 29.9002L96.6472 29.9002L97.2625 30.6885ZM98.1168 29.3751L99.0869 29.618L99.0888 29.6101L99.0907 29.6022L98.1168 29.3751ZM99.1496 26.2627L98.2429 25.8409L98.2379 25.8517L98.2331 25.8626L99.1496 26.2627ZM111.393 15.0285L111.736 15.968L111.736 15.968L111.393 15.0285ZM119.765 13.7368L119.722 14.7359L119.722 14.7359L119.765 13.7368ZM127.994 15.7492L127.572 16.6555L127.572 16.6555L127.994 15.7492ZM134.825 20.7589L135.563 20.0834L135.563 20.0834L134.825 20.7589ZM139.218 28.0023L140.158 27.6607L140.158 27.6607L139.218 28.0023ZM140.503 36.3757L139.503 36.3314L139.503 36.3314L140.503 36.3757ZM138.483 44.6027L139.346 45.1087L139.369 45.0684L139.389 45.0261L138.483 44.6027ZM131.302 54.0856L132.015 54.7865L132.023 54.7787L131.302 54.0856ZM95.7808 90.2408L95.0675 90.9417L95.7808 91.6677L96.4941 90.9417L95.7808 90.2408ZM60.2597 54.0855L59.539 54.7788L59.5464 54.7863L60.2597 54.0855ZM53.0785 44.6027L52.1733 45.0278L52.1927 45.0691L52.2158 45.1085L53.0785 44.6027ZM51.0541 36.3793L50.0551 36.4229L50.0551 36.4229L51.0541 36.3793ZM48.1382 136.38L48.5609 137.287L48.6011 137.268L48.6395 137.246L48.1382 136.38ZM31.5455 137.105L31.2035 138.045L31.2035 138.045L31.5455 137.105ZM29.7959 97.0466L29.3959 96.1301L29.3845 96.1351L29.3733 96.1403L29.7959 97.0466ZM32.9082 96.0139L33.1355 96.9877L33.1433 96.9859L33.1512 96.9839L32.9082 96.0139ZM34.2217 95.1595L35.01 95.7747L35.01 95.7747L34.2217 95.1595ZM34.2217 92.1962L33.4333 92.8115L33.4333 92.8115L34.2217 92.1962ZM32.9082 91.3419L33.1512 90.3718L33.1429 90.3697L33.1346 90.3678L32.9082 91.3419ZM29.8007 90.3091L29.3788 91.2158L29.3889 91.2204L29.399 91.2249L29.8007 90.3091ZM22.9631 85.3052L23.7 84.6291L23.7 84.6291L22.9631 85.3052ZM18.5647 78.0655L17.6251 78.408L17.6251 78.408L18.5647 78.0655ZM17.2732 69.6935L16.2741 69.6501L16.2741 69.6501L17.2732 69.6935ZM19.2855 61.4649L18.3792 61.0423L18.3792 61.0423L19.2855 61.4649ZM24.295 54.6338L23.6195 53.8964L23.6195 53.8964L24.295 54.6338ZM31.5382 50.2412L31.1965 49.3014L31.1965 49.3014L31.5382 50.2412ZM39.9113 48.9565L39.8671 49.9555L39.8671 49.9555L39.9113 48.9565ZM48.1382 50.9755L48.64 50.1105L48.6017 50.0883L48.5616 50.0695L48.1382 50.9755ZM56.8536 57.4928L57.5669 56.792L57.5544 56.7792L57.5414 56.7669L56.8536 57.4928ZM92.4041 93.678L93.1174 94.3788L93.806 93.678L93.1174 92.9771L92.4041 93.678ZM56.8536 129.863L57.5418 130.589L57.5546 130.577L57.5669 130.564L56.8536 129.863ZM127.986 171.59L128.408 172.497L128.41 172.496L127.986 171.59ZM111.398 172.303L111.056 173.243L111.056 173.243L111.398 172.303ZM99.1496 161.093L98.2332 161.494L98.2384 161.505L98.2438 161.517L99.1496 161.093ZM98.1168 157.983L99.0907 157.756L99.089 157.749L99.0872 157.742L98.1168 157.983ZM93.4448 157.983L92.4744 157.742L92.4726 157.749L92.471 157.756L93.4448 157.983ZM92.412 161.093L93.3183 161.516L93.3235 161.505L93.3284 161.494L92.412 161.093ZM87.4053 167.921L86.7297 167.184L86.7297 167.184L87.4053 167.921ZM71.7983 173.602L71.8419 172.602L71.8419 172.602L71.7983 173.602ZM63.574 171.589L63.1514 172.495L63.1514 172.495L63.574 171.589ZM52.3537 159.344L51.414 159.686L51.414 159.686L52.3537 159.344ZM51.0658 150.975L52.0649 151.019L52.0649 151.019L51.0658 150.975ZM53.0785 142.751L52.2161 142.245L52.1921 142.285L52.1722 142.328L53.0785 142.751ZM60.2782 133.251L59.5649 132.55L59.5577 132.558L60.2782 133.251ZM95.7808 97.1151L96.4941 96.4143L95.7808 95.6882L95.0675 96.4143L95.7808 97.1151ZM131.283 133.251L132.004 132.558L131.997 132.551L131.283 133.251ZM138.483 142.753L139.39 142.332L139.37 142.288L139.346 142.247L138.483 142.753ZM172.26 125.884L171.354 125.461L171.354 125.461L172.26 125.884ZM167.254 132.712L167.929 133.45L167.929 133.45L167.254 132.712ZM160.015 137.105L159.673 136.165L159.673 136.165L160.015 137.105ZM151.646 138.393L151.602 139.392L151.602 139.392L151.646 138.393ZM143.421 136.38L142.919 137.245L142.958 137.268L142.998 137.287L143.421 136.38ZM134.708 129.863L133.995 130.564L134.007 130.577L134.02 130.589L134.708 129.863ZM99.1575 93.678L98.4442 92.9771L97.7556 93.678L98.4442 94.3788L99.1575 93.678ZM134.708 57.4929L134.02 56.767L134.007 56.7793L133.995 56.7921L134.708 57.4929ZM143.423 50.9755L143.001 50.0692L142.96 50.0881L142.922 50.1105L143.423 50.9755ZM160.016 50.2516L159.674 51.1913L159.674 51.1913L160.016 50.2516ZM172.26 61.4723L173.167 61.0497L173.167 61.0497L172.26 61.4723ZM174.272 69.6965L173.273 69.7401L173.273 69.7401L174.272 69.6965ZM168.592 85.3029L169.329 85.9785L169.329 85.9785L168.592 85.3029ZM161.763 90.3091L162.163 91.2256L162.175 91.2207L162.186 91.2154L161.763 90.3091ZM158.651 91.3418L158.424 90.368L158.416 90.3698L158.408 90.3718L158.651 91.3418ZM157.338 92.1962L158.126 92.8115L158.126 92.8115L157.338 92.1962ZM157.338 95.1595L156.549 95.7747L156.549 95.7747L157.338 95.1595ZM158.651 96.0139L158.408 96.9839L158.416 96.9858L158.423 96.9876L158.651 96.0139ZM161.763 97.0466L162.186 96.1403L162.175 96.135L162.163 96.13L161.763 97.0466ZM168.592 102.053L169.329 101.377L169.329 101.377L168.592 102.053ZM172.985 109.291L172.045 109.633L172.045 109.633L172.985 109.291ZM174.273 117.659L173.274 117.616L173.274 117.616L174.273 117.659ZM53.2936 28.3527C54.694 24.5056 57.2037 21.1602 60.5054 18.7395L59.3229 17.1266C55.7022 19.7812 52.9499 23.4498 51.4142 27.6686L53.2936 28.3527ZM60.5054 18.7395C63.8071 16.3188 67.7525 14.9315 71.8426 14.753L71.7554 12.7549C67.2701 12.9506 62.9436 14.472 59.3229 17.1266L60.5054 18.7395ZM71.8426 14.753C75.9328 14.5745 79.984 15.6129 83.484 17.7369L84.5215 16.0271C80.6834 13.6979 76.2408 12.5592 71.7554 12.7549L71.8426 14.753ZM83.484 17.7369C86.984 19.8608 89.7756 22.9749 91.5057 26.6853L93.3184 25.8401C91.421 21.7712 88.3597 18.3562 84.5215 16.0271L83.484 17.7369ZM91.4956 26.6628C91.9095 27.6109 92.2359 28.5948 92.4709 29.6022L94.4186 29.148C94.156 28.0219 93.7911 26.9223 93.3285 25.8626L91.4956 26.6628ZM92.4747 29.618C92.6593 30.3551 93.0849 31.0094 93.6839 31.4769L94.9144 29.9002C94.6669 29.7071 94.4911 29.4367 94.4148 29.1322L92.4747 29.618ZM93.6839 31.4769C94.2829 31.9444 95.021 32.1983 95.7808 32.1983L95.7808 30.1983C95.4669 30.1983 95.1619 30.0934 94.9144 29.9002L93.6839 31.4769ZM95.7808 32.1983C96.5406 32.1983 97.2787 31.9444 97.8777 31.4769L96.6472 29.9002C96.3997 30.0934 96.0948 30.1983 95.7808 30.1983L95.7808 32.1983ZM97.8777 31.4769C98.4767 31.0094 98.9023 30.3551 99.0869 29.618L97.1468 29.1322C97.0705 29.4367 96.8947 29.7071 96.6472 29.9002L97.8777 31.4769ZM99.0907 29.6022C99.3257 28.5948 99.6521 27.6109 100.066 26.6628L98.2331 25.8626C97.7705 26.9223 97.4056 28.0219 97.143 29.1479L99.0907 29.6022ZM100.056 26.6846C101.204 24.2186 102.825 22.0029 104.83 20.164L103.477 18.6904C101.28 20.7069 99.501 23.1367 98.2429 25.8409L100.056 26.6846ZM104.83 20.164C106.834 18.3252 109.18 16.8994 111.736 15.968L111.051 14.0889C108.248 15.1103 105.675 16.6739 103.477 18.6904L104.83 20.164ZM111.736 15.968C114.291 15.0366 117.005 14.6179 119.722 14.7359L119.809 12.7378C116.829 12.6084 113.853 13.0675 111.051 14.0889L111.736 15.968ZM119.722 14.7359C122.439 14.8539 125.107 15.5062 127.572 16.6555L128.417 14.8429C125.714 13.5825 122.789 12.8671 119.809 12.7378L119.722 14.7359ZM127.572 16.6555C130.037 17.8049 132.251 19.4287 134.088 21.4343L135.563 20.0834C133.548 17.884 131.12 16.1033 128.417 14.8429L127.572 16.6555ZM134.088 21.4343C135.925 23.4399 137.349 25.7878 138.278 28.344L140.158 27.6607C139.139 24.8576 137.577 22.2827 135.563 20.0834L134.088 21.4343ZM138.278 28.344C139.207 30.9001 139.624 33.6143 139.503 36.3314L141.502 36.4199C141.633 33.4402 141.177 30.4638 140.158 27.6607L138.278 28.344ZM139.503 36.3314C139.383 39.0486 138.729 41.7153 137.577 44.1794L139.389 45.0261C140.652 42.324 141.37 39.3995 141.502 36.4199L139.503 36.3314ZM137.621 44.0967C135.647 47.4609 133.284 50.581 130.581 53.3925L132.023 54.7787C134.835 51.854 137.293 48.6083 139.346 45.1087L137.621 44.0967ZM130.589 53.3848L95.0675 89.54L96.4941 90.9417L132.015 54.7864L130.589 53.3848ZM96.4941 89.54L60.9731 53.3846L59.5464 54.7863L95.0675 90.9417L96.4941 89.54ZM60.9804 53.3922C58.2764 50.5815 55.9136 47.4616 53.9411 44.097L52.2158 45.1085C54.2679 48.6088 56.726 51.8547 59.5391 54.7788L60.9804 53.3922ZM53.9836 44.1776C52.8279 41.717 52.1718 39.0516 52.0532 36.3356L50.0551 36.4229C50.1852 39.4031 50.9052 42.3278 52.1733 45.0278L53.9836 44.1776ZM52.0532 36.3356C51.9346 33.6197 52.3559 30.9072 53.2926 28.3552L51.4151 27.666C50.3872 30.4663 49.9249 33.4427 50.0551 36.4229L52.0532 36.3356ZM47.7156 135.474C45.2519 136.623 42.5861 137.275 39.8703 137.394L39.9576 139.392C42.9358 139.262 45.8592 138.547 48.5609 137.287L47.7156 135.474ZM39.8703 137.394C37.1545 137.512 34.442 137.095 31.8875 136.165L31.2035 138.045C34.0048 139.064 36.9794 139.522 39.9576 139.392L39.8703 137.394ZM31.8875 136.165C26.7285 134.288 22.5268 130.438 20.2065 125.462L18.3939 126.307C20.9383 131.764 25.5461 135.986 31.2035 138.045L31.8875 136.165ZM20.2065 125.462C17.8863 120.486 17.6376 114.793 19.5152 109.634L17.6358 108.95C15.5768 114.607 15.8495 120.851 18.3939 126.307L20.2065 125.462ZM19.5152 109.634C21.3928 104.475 25.2429 100.273 30.2185 97.9529L29.3733 96.1403C23.9169 98.6848 19.6948 103.292 17.6358 108.95L19.5152 109.634ZM30.1959 97.9631C31.1441 97.5493 32.128 97.2228 33.1355 96.9877L32.681 95.04C31.5551 95.3027 30.4555 95.6676 29.3959 96.1301L30.1959 97.9631ZM33.1512 96.9839C33.8883 96.7993 34.5425 96.3737 35.01 95.7747L33.4333 94.5442C33.2402 94.7917 32.9699 94.9676 32.6653 95.0438L33.1512 96.9839ZM35.01 95.7747C35.4775 95.1757 35.7314 94.4377 35.7314 93.6779L33.7314 93.6779C33.7314 93.9918 33.6265 94.2967 33.4333 94.5442L35.01 95.7747ZM35.7314 93.6779C35.7314 92.918 35.4775 92.18 35.01 91.581L33.4333 92.8115C33.6265 93.059 33.7314 93.3639 33.7314 93.6779L35.7314 93.6779ZM35.01 91.581C34.5425 90.982 33.8882 90.5564 33.1512 90.3718L32.6653 92.3119C32.9699 92.3882 33.2402 92.564 33.4333 92.8115L35.01 91.581ZM33.1346 90.3678C32.1292 90.1342 31.1476 89.8079 30.2024 89.3933L29.399 91.2249C30.4573 91.6891 31.5563 92.0543 32.6819 92.3159L33.1346 90.3678ZM30.2226 89.4024C27.7564 88.255 25.5384 86.6329 23.7 84.6291L22.2263 85.9812C24.2429 88.1791 26.675 89.9577 29.3788 91.2158L30.2226 89.4024ZM23.7 84.6291C21.8613 82.6251 20.4355 80.2784 19.5042 77.7231L17.6251 78.408C18.6464 81.2101 20.2099 83.7836 22.2263 85.9812L23.7 84.6291ZM19.5042 77.7231C18.5729 75.1678 18.1542 72.454 18.2722 69.7369L16.2741 69.6501C16.1447 72.6298 16.6038 75.6058 17.6251 78.408L19.5042 77.7231ZM18.2722 69.7369C18.3902 67.0197 19.0425 64.3524 20.1918 61.8875L18.3792 61.0423C17.1188 63.7454 16.4035 66.6704 16.2741 69.6501L18.2722 69.7369ZM20.1918 61.8875C21.3412 59.4225 22.965 57.2083 24.9705 55.3712L23.6195 53.8964C21.4203 55.911 19.6396 58.3392 18.3792 61.0423L20.1918 61.8875ZM24.9705 55.3712C26.976 53.5341 29.3238 52.1103 31.8799 51.181L31.1965 49.3014C28.3935 50.3204 25.8188 51.8818 23.6195 53.8964L24.9705 55.3712ZM31.8799 51.181C34.4359 50.2518 37.15 49.8353 39.8671 49.9555L39.9555 47.9575C36.9759 47.8257 33.9995 48.2823 31.1965 49.3014L31.8799 51.181ZM39.8671 49.9555C42.5842 50.0757 45.2509 50.7302 47.7149 51.8815L48.5616 50.0695C45.8595 48.807 42.9351 48.0893 39.9555 47.9575L39.8671 49.9555ZM47.6364 51.8405C50.7176 53.628 53.5801 55.7685 56.1658 58.2187L57.5414 56.7669C54.8429 54.2099 51.8557 51.976 48.64 50.1105L47.6364 51.8405ZM56.1403 58.1936L91.6908 94.3788L93.1174 92.9771L57.5669 56.792L56.1403 58.1936ZM91.6908 92.9771L56.1403 129.162L57.5669 130.564L93.1174 94.3788L91.6908 92.9771ZM56.1654 129.138C53.5812 131.589 50.7189 133.729 47.6369 135.515L48.6395 137.246C51.8566 135.382 54.8444 133.148 57.5418 130.589L56.1654 129.138ZM127.565 170.683C122.588 172.996 116.897 173.241 111.74 171.363L111.056 173.243C116.711 175.301 122.951 175.033 128.408 172.497L127.565 170.683ZM111.74 171.363C106.583 169.486 102.381 165.64 100.055 160.67L98.2438 161.517C100.794 166.968 105.401 171.184 111.056 173.243L111.74 171.363ZM100.066 160.693C99.6521 159.746 99.3256 158.763 99.0907 157.756L97.143 158.211C97.4057 159.336 97.7706 160.435 98.2332 161.494L100.066 160.693ZM99.0872 157.742C98.9034 157.004 98.4781 156.349 97.8789 155.88L96.6474 157.456C96.8949 157.65 97.0706 157.92 97.1465 158.225L99.0872 157.742ZM97.8789 155.88C97.2798 155.412 96.5412 155.158 95.7808 155.158L95.7808 157.158C96.0949 157.158 96.3999 157.263 96.6474 157.456L97.8789 155.88ZM95.7808 155.158C95.0204 155.158 94.2818 155.412 93.6827 155.88L94.9142 157.456C95.1617 157.263 95.4667 157.158 95.7808 157.158L95.7808 155.158ZM93.6827 155.88C93.0835 156.349 92.6582 157.004 92.4744 157.742L94.4151 158.225C94.4911 157.92 94.6667 157.65 94.9142 157.456L93.6827 155.88ZM92.471 157.756C92.236 158.763 91.9096 159.746 91.4957 160.693L93.3284 161.494C93.791 160.435 94.156 159.336 94.4186 158.211L92.471 157.756ZM91.5057 160.671C90.3569 163.134 88.734 165.348 86.7297 167.184L88.0809 168.659C90.2788 166.645 92.0585 164.218 93.3183 161.516L91.5057 160.671ZM86.7297 167.184C84.7255 169.021 82.3792 170.444 79.8247 171.374L80.5087 173.253C83.31 172.234 85.883 170.673 88.0809 168.659L86.7297 167.184ZM79.8247 171.374C77.2703 172.304 74.5577 172.721 71.8419 172.602L71.7547 174.601C74.7328 174.731 77.7075 174.273 80.5087 173.253L79.8247 171.374ZM71.8419 172.602C69.1261 172.484 66.4603 171.831 63.9967 170.683L63.1514 172.495C65.8531 173.755 68.7765 174.47 71.7547 174.601L71.8419 172.602ZM63.9967 170.683C59.0211 168.362 55.171 164.161 53.2934 159.002L51.414 159.686C53.473 165.343 57.6951 169.951 63.1514 172.495L63.9967 170.683ZM53.2934 159.002C52.3637 156.447 51.9462 153.735 52.0649 151.019L50.0668 150.932C49.9367 153.91 50.3945 156.884 51.414 159.686L53.2934 159.002ZM52.0649 151.019C52.1835 148.303 52.8359 145.637 53.9848 143.173L52.1722 142.328C50.9123 145.03 50.1969 147.953 50.0668 150.932L52.0649 151.019ZM53.9408 143.257C55.9196 139.887 58.2886 136.761 60.9988 133.945L59.5577 132.558C56.7386 135.487 54.2744 138.739 52.2161 142.245L53.9408 143.257ZM60.9916 133.952L96.4941 97.8159L95.0675 96.4143L59.5649 132.551L60.9916 133.952ZM95.0675 97.8159L130.57 133.952L131.997 132.551L96.4941 96.4143L95.0675 97.8159ZM130.563 133.945C133.273 136.762 135.642 139.888 137.621 143.259L139.346 142.247C137.287 138.74 134.823 135.488 132.004 132.558L130.563 133.945ZM137.576 143.175C139.89 148.152 140.135 153.843 138.258 159L140.137 159.684C142.196 154.029 141.927 147.789 139.39 142.332L137.576 143.175ZM138.258 159C136.381 164.157 132.534 168.359 127.563 170.684L128.41 172.496C133.861 169.947 138.079 165.339 140.137 159.684L138.258 159ZM171.354 125.461C170.205 127.925 168.582 130.138 166.578 131.975L167.929 133.45C170.127 131.435 171.907 129.008 173.167 126.306L171.354 125.461ZM166.578 131.975C164.574 133.812 162.227 135.236 159.673 136.165L160.357 138.045C163.158 137.025 165.731 135.464 167.929 133.45L166.578 131.975ZM159.673 136.165C157.118 137.095 154.405 137.513 151.689 137.394L151.602 139.392C154.581 139.522 157.555 139.065 160.357 138.045L159.673 136.165ZM151.689 137.394C148.973 137.276 146.307 136.623 143.844 135.474L142.998 137.287C145.7 138.547 148.624 139.262 151.602 139.392L151.689 137.394ZM143.923 135.515C140.842 133.729 137.98 131.588 135.396 129.138L134.02 130.589C136.717 133.147 139.704 135.381 142.919 137.245L143.923 135.515ZM135.421 129.162L99.8708 92.9771L98.4442 94.3788L133.995 130.564L135.421 129.162ZM99.8708 94.3788L135.421 58.1937L133.995 56.7921L98.4442 92.9771L99.8708 94.3788ZM135.396 58.2188C137.982 55.7686 140.844 53.628 143.925 51.8405L142.922 50.1105C139.706 51.9761 136.719 54.2099 134.02 56.767L135.396 58.2188ZM143.846 51.8818C148.822 49.5619 154.515 49.3135 159.674 51.1913L160.358 49.3119C154.701 47.2527 148.457 47.5251 143.001 50.0692L143.846 51.8818ZM159.674 51.1913C162.228 52.1211 164.574 53.5449 166.578 55.3814L167.93 53.9069C165.732 51.8929 163.159 50.3316 160.358 49.3119L159.674 51.1913ZM166.578 55.3814C168.582 57.218 170.205 59.4312 171.354 61.8949L173.167 61.0497C171.907 58.348 170.127 55.9209 167.93 53.9069L166.578 55.3814ZM171.354 61.8949C172.503 64.3586 173.155 67.0244 173.273 69.7401L175.271 69.6529C175.141 66.6748 174.426 63.7514 173.167 61.0497L171.354 61.8949ZM173.273 69.7401C173.392 72.4558 172.974 75.1683 172.044 77.7226L173.924 78.4067C174.943 75.6056 175.401 72.631 175.271 69.6529L173.273 69.7401ZM172.044 77.7226C171.115 80.277 169.691 82.6232 167.854 84.6273L169.329 85.9785C171.343 83.7808 172.904 81.2079 173.924 78.4067L172.044 77.7226ZM167.854 84.6272C166.018 86.6313 163.804 88.2541 161.341 89.4028L162.186 91.2154C164.888 89.9557 167.315 88.1762 169.329 85.9785L167.854 84.6272ZM161.363 89.3926C160.415 89.8065 159.431 90.133 158.424 90.368L158.878 92.3157C160.004 92.0531 161.104 91.6882 162.163 91.2256L161.363 89.3926ZM158.408 90.3718C157.671 90.5564 157.017 90.982 156.549 91.581L158.126 92.8115C158.319 92.564 158.589 92.3882 158.894 92.3119L158.408 90.3718ZM156.549 91.581C156.082 92.18 155.828 92.918 155.828 93.6779L157.828 93.6779C157.828 93.3639 157.933 93.059 158.126 92.8115L156.549 91.581ZM155.828 93.6779C155.828 94.4377 156.082 95.1758 156.549 95.7747L158.126 94.5442C157.933 94.2967 157.828 93.9918 157.828 93.6779L155.828 93.6779ZM156.549 95.7747C157.017 96.3737 157.671 96.7993 158.408 96.9839L158.894 95.0438C158.589 94.9676 158.319 94.7917 158.126 94.5442L156.549 95.7747ZM158.423 96.9876C159.431 97.2231 160.415 97.5497 161.364 97.9633L162.163 96.13C161.104 95.668 160.004 95.3032 158.879 95.0401L158.423 96.9876ZM161.341 97.953C163.805 99.1016 166.018 100.724 167.855 102.728L169.329 101.377C167.315 99.1793 164.888 97.3999 162.186 96.1403L161.341 97.953ZM167.855 102.728C169.691 104.732 171.115 107.079 172.045 109.633L173.924 108.949C172.905 106.148 171.343 103.575 169.329 101.377L167.855 102.728ZM172.045 109.633C172.975 112.187 173.392 114.9 173.274 117.616L175.272 117.703C175.402 114.725 174.944 111.75 173.924 108.949L172.045 109.633ZM173.274 117.616C173.155 120.331 172.503 122.997 171.354 125.461L173.166 126.306C174.426 123.604 175.142 120.681 175.272 117.703L173.274 117.616Z" fill="#F2F2F2" mask="url(#path-1-inside-1)"/>
</svg>
