<svg width="114" height="114" viewBox="0 0 114 114" fill="none" xmlns="http://www.w3.org/2000/svg">
<mask id="path-1-inside-1" fill="white">
<path d="M34.1511 10.2218C32.1782 11.6683 30.6786 13.6673 29.8418 15.9661C29.2818 17.4915 29.03 19.1128 29.1009 20.7362C29.1718 22.3596 29.564 23.9528 30.2548 25.4236C31.4018 27.3801 32.7757 29.1943 34.3481 30.8287L54.5951 51.4373L74.8421 30.8288C76.414 29.194 77.7879 27.3798 78.9355 25.4236C79.6235 23.9512 80.0146 22.3577 80.0865 20.7341C80.1584 19.1105 79.9096 17.4887 79.3543 15.9613C78.7991 14.4339 77.9483 13.031 76.8506 11.8326C75.7528 10.6342 74.4297 9.66383 72.9567 8.97705C71.4838 8.29027 69.89 7.90049 68.2663 7.83C66.6427 7.75951 65.0211 8.00969 63.4942 8.56623C61.9672 9.12277 60.565 9.97477 59.3675 11.0735C58.17 12.1723 57.2009 13.4963 56.5153 14.9698C56.2655 15.542 56.0685 16.1358 55.9267 16.7438C55.8523 17.0407 55.6809 17.3042 55.4397 17.4925C55.1984 17.6808 54.9012 17.783 54.5951 17.783C54.2891 17.783 53.9918 17.6808 53.7506 17.4925C53.5093 17.3042 53.3379 17.0407 53.2636 16.7438C53.1218 16.1358 52.9247 15.542 52.6749 14.9698C51.6411 12.7526 49.973 10.8919 47.8816 9.62272C45.7903 8.3536 43.3695 7.73312 40.9255 7.83976C38.4815 7.94641 36.124 8.77537 34.1511 10.2218Z"/>
<path d="M22.751 78.884C24.3738 78.8131 25.9667 78.4233 27.4389 77.7368C29.2341 76.6967 30.9014 75.4499 32.4066 74.022L52.6704 53.3964L32.4066 32.7709C30.9006 31.3439 29.2335 30.0972 27.4389 29.056C25.9665 28.3681 24.3731 27.977 22.7495 27.9052C21.126 27.8334 19.5042 28.0822 17.9768 28.6375C16.4495 29.1927 15.0466 30.0435 13.8482 31.1413C12.6499 32.239 11.6796 33.5621 10.9928 35.035C10.3061 36.5079 9.91628 38.1017 9.84578 39.7253C9.77528 41.3489 10.0254 42.9705 10.5819 44.4974C11.1384 46.0242 11.9904 47.4265 13.0891 48.624C14.1877 49.8214 15.513 50.7906 16.9865 51.4762C17.5575 51.7267 18.1504 51.9237 18.7578 52.0649C19.0546 52.1392 19.3181 52.3106 19.5064 52.5519C19.6947 52.7931 19.797 53.0904 19.797 53.3964C19.797 53.7024 19.6947 53.9997 19.5064 54.2409C19.3181 54.4822 19.0546 54.6536 18.7578 54.7279C18.1497 54.8698 17.5559 55.0668 16.9837 55.3166C14.0106 56.703 11.71 59.2137 10.5881 62.2964C9.46616 65.3791 9.61475 68.7812 11.0012 71.7543C12.3876 74.7274 14.8983 77.0279 17.981 78.1499C19.5074 78.7054 21.1282 78.9548 22.751 78.884Z"/>
<path d="M63.4969 98.2128C66.5782 99.3344 69.9786 99.1882 72.9523 97.8063C75.9228 96.4172 78.221 93.9065 79.3427 90.825C80.4644 87.7435 80.3179 84.343 78.9355 81.3693C77.7848 79.4092 76.4074 77.5913 74.8316 75.9533L54.5951 55.3556L34.3587 75.9533C32.7828 77.5908 31.4054 79.4082 30.2548 81.368C29.5683 82.8401 29.1785 84.4331 29.1076 86.0558C29.0367 87.6786 29.2861 89.2995 29.8417 90.8259C30.9636 93.9085 33.2642 96.4192 36.2373 97.8057C37.7094 98.4922 39.3023 98.882 40.9251 98.9529C42.5479 99.0238 44.1687 98.7743 45.6951 98.2188C47.2215 97.6633 48.6235 96.8125 49.8211 95.7152C51.0187 94.6178 51.9884 93.2953 52.6749 91.8232C52.9247 91.2515 53.1218 90.6581 53.2636 90.0505C53.3376 89.7534 53.5089 89.4895 53.7502 89.301C53.9915 89.1124 54.2889 89.01 54.5951 89.01C54.9014 89.01 55.1988 89.1124 55.4401 89.301C55.6814 89.4895 55.8526 89.7534 55.9267 90.0505C56.0685 90.6581 56.2655 91.2515 56.5153 91.8232C57.9049 94.7933 60.4156 97.0912 63.4969 98.2128Z"/>
<path d="M95.3346 75.646C96.5322 74.5485 97.5019 73.2259 98.1884 71.7536C98.8749 70.2815 99.2647 68.6885 99.3355 67.0658C99.4064 65.443 99.1569 63.8222 98.6013 62.2958C98.0457 60.7695 97.1949 59.3675 96.0974 58.17C95 56.9725 93.6774 56.0029 92.2052 55.3166C91.6329 55.067 91.0391 54.87 90.4312 54.7279C90.1343 54.6536 89.8708 54.4822 89.6825 54.2409C89.4942 53.9997 89.392 53.7024 89.392 53.3964C89.392 53.0904 89.4942 52.7931 89.6825 52.5519C89.8708 52.3106 90.1343 52.1392 90.4312 52.0649C91.0392 51.923 91.633 51.726 92.2052 51.4762C93.6773 50.7898 94.9998 49.8202 96.0972 48.6226C97.1946 47.4251 98.0454 46.0232 98.601 44.4969C99.1566 42.9706 99.4061 41.3498 99.3353 39.727C99.2645 38.1043 98.8748 36.5114 98.1884 35.0392C97.502 33.5671 96.5323 32.2446 95.3348 31.1472C94.1373 30.0498 92.7354 29.199 91.2091 28.6434C88.1265 27.5214 84.7245 27.6698 81.7514 29.056C79.9568 30.0972 78.2897 31.3439 76.7836 32.771L56.5198 53.3964L76.7836 74.022C78.2888 75.4494 79.9556 76.6961 81.7501 77.7368C83.2223 78.4234 84.8153 78.8132 86.4382 78.8841C88.0611 78.955 89.682 78.7055 91.2085 78.1499C92.7349 77.5943 94.137 76.7435 95.3346 75.646Z"/>
</mask>
<path d="M101.181 61.3575L100.241 61.6966L100.242 61.6995L101.181 61.3575ZM94.4673 53.3964L93.9718 52.5278L92.4441 53.3993L93.9743 54.2665L94.4673 53.3964ZM101.391 44.8226L102.344 45.124L102.344 45.124L101.391 44.8226ZM81.628 26.1289L80.7083 25.7365L79.7875 27.8945L81.9819 27.0642L81.628 26.1289ZM81.9067 14.9664L80.9684 15.3125L80.9684 15.3125L81.9067 14.9664ZM74.4466 6.65826L74.8913 5.76257L74.8913 5.76257L74.4466 6.65826ZM63.3187 5.73792L63.0272 4.78135L63.0272 4.78135L63.3187 5.73792ZM54.5951 12.7076L53.7265 13.2031L54.5951 14.726L55.4637 13.2031L54.5951 12.7076ZM45.8716 5.73726L46.1631 4.78069L46.1631 4.78069L45.8716 5.73726ZM34.7432 6.65745L34.2985 5.76177L34.2985 5.76177L34.7432 6.65745ZM27.2831 14.966L28.2213 15.3121L28.2213 15.3121L27.2831 14.966ZM27.5622 26.1289L27.2083 27.0642L29.4029 27.8946L28.482 25.7364L27.5622 26.1289ZM16.5428 26.2542L16.1677 25.3272L16.1677 25.3272L16.5428 26.2542ZM8.5369 33.8271L7.63218 33.4011L7.63218 33.4011L8.5369 33.8271ZM7.79964 44.8226L6.84615 45.124L6.84615 45.124L7.79964 44.8226ZM14.7229 53.3965L15.2184 54.2651L16.7411 53.3964L15.2184 52.5278L14.7229 53.3965ZM8.53697 72.9658L9.44169 72.5397L9.44169 72.5397L8.53697 72.9658ZM16.5428 80.5386L16.9179 79.6116L16.9179 79.6116L16.5428 80.5386ZM27.5622 80.664L28.4817 81.0571L29.4051 78.8975L27.2083 79.7287L27.5622 80.664ZM27.0305 91.1026L27.9851 90.8049L27.9851 90.8049L27.0305 91.1026ZM43.6252 101.559L43.4816 100.569L43.4816 100.569L43.6252 101.559ZM64.8069 101.423L65.0006 100.442L65.0006 100.442L64.8069 101.423ZM82.0779 91.3439L81.1285 91.0299L81.1285 91.0299L82.0779 91.3439ZM81.628 80.664L81.982 79.7287L79.7863 78.8978L80.7084 81.0568L81.628 80.664ZM90.1086 81.3148L89.9015 80.3364L89.9015 80.3364L90.1086 81.3148ZM101.724 69.8456L100.749 69.6261L100.749 69.6261L101.724 69.8456ZM102.122 61.0183C100.826 57.4231 98.2853 54.4107 94.9604 52.5264L93.9743 54.2665C96.8836 55.9151 99.1064 58.5509 100.241 61.6966L102.122 61.0183ZM94.9628 54.2651C98.4858 52.2554 101.122 48.9912 102.344 45.124L100.437 44.5212C99.3663 47.9085 97.0576 50.7676 93.9718 52.5278L94.9628 54.2651ZM102.344 45.124C103.566 41.2567 103.286 37.0706 101.558 33.4012L99.7485 34.2532C101.262 37.4673 101.508 41.1338 100.437 44.5212L102.344 45.124ZM101.558 33.4012C99.8301 29.7317 96.7823 26.8486 93.0225 25.3273L92.2723 27.1813C95.5655 28.5138 98.2351 31.0391 99.7485 34.2532L101.558 33.4012ZM93.0225 25.3273C89.2627 23.806 85.0676 23.7582 81.2741 25.1936L81.9819 27.0642C85.3046 25.8069 88.9791 25.8487 92.2723 27.1813L93.0225 25.3273ZM82.5478 26.5213C84.1621 22.7376 84.2684 18.4799 82.8449 14.6204L80.9684 15.3125C82.2153 18.693 82.1222 22.4224 80.7083 25.7365L82.5478 26.5213ZM82.8449 14.6204C81.4214 10.7609 78.5759 7.59186 74.8913 5.76257L74.002 7.55394C77.2292 9.15621 79.7216 11.932 80.9684 15.3125L82.8449 14.6204ZM74.8913 5.76257C71.2068 3.93328 66.9622 3.58223 63.0272 4.78135L63.6102 6.69449C67.0569 5.64419 70.7747 5.95168 74.002 7.55394L74.8913 5.76257ZM63.0272 4.78135C59.0922 5.98046 55.7647 8.63896 53.7265 12.2121L55.4637 13.2031C57.249 10.0734 60.1636 7.74479 63.6102 6.69449L63.0272 4.78135ZM55.4638 12.2122C53.4257 8.63874 50.0982 5.97998 46.1631 4.78069L45.58 6.69382C49.0268 7.74427 51.9413 10.0731 53.7265 13.2031L55.4638 12.2122ZM46.1631 4.78069C42.228 3.58141 37.9832 3.93241 34.2985 5.76177L35.1879 7.55314C38.4153 5.95081 42.1333 5.64337 45.58 6.69382L46.1631 4.78069ZM34.2985 5.76177C30.6139 7.59113 27.7683 10.7603 26.3448 14.62L28.2213 15.3121C29.4681 11.9314 31.9605 9.15547 35.1879 7.55314L34.2985 5.76177ZM26.3448 14.62C24.9214 18.4797 25.0279 22.7377 26.6425 26.5214L28.482 25.7364C27.0678 22.4223 26.9745 18.6928 28.2213 15.3121L26.3448 14.62ZM27.9161 25.1936C24.1227 23.7582 19.9275 23.8059 16.1677 25.3272L16.9179 27.1812C20.2111 25.8487 23.8857 25.8069 27.2083 27.0642L27.9161 25.1936ZM16.1677 25.3272C12.4079 26.8486 9.36001 29.7316 7.63218 33.4011L9.44162 34.2531C10.955 31.039 13.6247 28.5137 16.9179 27.1812L16.1677 25.3272ZM7.63218 33.4011C5.90435 37.0706 5.62367 41.2567 6.84615 45.124L8.75314 44.5211C7.68237 41.1338 7.92822 37.4672 9.44162 34.2531L7.63218 33.4011ZM6.84615 45.124C8.06862 48.9913 10.7044 52.2554 14.2274 54.2651L15.2184 52.5278C12.1325 50.7676 9.8239 47.9085 8.75314 44.5211L6.84615 45.124ZM14.2274 52.5278C10.7044 54.5375 8.06867 57.8017 6.8462 61.669L8.7532 62.2718C9.82395 58.8844 12.1326 56.0253 15.2184 54.2651L14.2274 52.5278ZM6.8462 61.669C5.62374 65.5363 5.90443 69.7223 7.63225 73.3918L9.44169 72.5397C7.92829 69.3257 7.68244 65.6591 8.7532 62.2718L6.8462 61.669ZM7.63225 73.3918C9.36007 77.0612 12.408 79.9443 16.1678 81.4656L16.9179 79.6116C13.6248 78.2791 10.9551 75.7538 9.44169 72.5397L7.63225 73.3918ZM16.1678 81.4656C19.9275 82.9869 24.1227 83.0347 27.9161 81.5993L27.2083 79.7287C23.8857 80.986 20.2111 80.9442 16.9179 79.6116L16.1678 81.4656ZM26.6427 80.2709C25.1359 83.7951 24.9349 87.7411 26.0758 91.4003L27.9851 90.8049C26.9858 87.6001 27.1619 84.1439 28.4817 81.0571L26.6427 80.2709ZM26.0758 91.4003C27.2167 95.0594 29.6248 98.1919 32.8676 100.235L33.9338 98.5431C31.0936 96.7535 28.9844 94.0098 27.9851 90.8049L26.0758 91.4003ZM32.8676 100.235C36.1105 102.278 39.9755 103.099 43.7687 102.549L43.4816 100.569C40.1594 101.051 36.7741 100.333 33.9338 98.5431L32.8676 100.235ZM43.7687 102.549C47.5619 101.998 51.0347 100.114 53.5634 97.2335L52.0604 95.914C49.8456 98.4368 46.8039 100.087 43.4816 100.569L43.7687 102.549ZM54.9355 96.3848C57.3203 99.5033 60.7618 101.644 64.6133 102.404L65.0006 100.442C61.6272 99.7759 58.613 97.9012 56.5242 95.1699L54.9355 96.3848ZM64.6133 102.404C68.4649 103.164 72.4615 102.491 75.8522 100.513L74.8441 98.7853C71.8744 100.518 68.374 101.107 65.0006 100.442L64.6133 102.404ZM75.8522 100.513C79.2429 98.534 81.7944 95.3852 83.0273 91.658L81.1285 91.0299C80.0486 94.2944 77.8139 97.0522 74.8441 98.7853L75.8522 100.513ZM83.0273 91.658C84.2602 87.9308 84.0896 83.8816 82.5477 80.2712L80.7084 81.0568C82.0589 84.2189 82.2083 87.7654 81.1285 91.0299L83.0273 91.658ZM81.2741 81.5993C84.1594 82.6912 87.2976 82.932 90.3157 82.2931L89.9015 80.3364C87.2579 80.8961 84.5092 80.6852 81.982 79.7287L81.2741 81.5993ZM90.3157 82.2931C93.3339 81.6541 96.1052 80.1622 98.3005 77.9947L96.8953 76.5715C94.9724 78.4701 92.5451 79.7768 89.9015 80.3364L90.3157 82.2931ZM98.3005 77.9947C100.496 75.8271 102.023 73.0749 102.7 70.0651L100.749 69.6261C100.156 72.2624 98.8181 74.6729 96.8953 76.5715L98.3005 77.9947ZM102.7 70.0651C103.377 67.0553 103.176 63.9144 102.121 61.0154L100.242 61.6995C101.166 64.2387 101.342 66.9898 100.749 69.6261L102.7 70.0651ZM29.8418 15.9661L31.7193 16.6553L31.7211 16.6502L29.8418 15.9661ZM34.1511 10.2218L32.9686 8.6089L32.9686 8.6089L34.1511 10.2218ZM40.9255 7.83976L41.0127 9.83786L41.0127 9.83786L40.9255 7.83976ZM52.6749 14.9698L54.5079 14.1696L54.498 14.1469L54.4876 14.1245L52.6749 14.9698ZM53.2636 16.7438L51.3159 17.1981L51.3196 17.2139L51.3235 17.2296L53.2636 16.7438ZM53.7506 17.4925L54.9811 15.9158L54.9811 15.9158L53.7506 17.4925ZM55.4397 17.4925L56.6702 19.0691L56.6702 19.0691L55.4397 17.4925ZM55.9267 16.7438L57.8668 17.2296L57.8707 17.2139L57.8744 17.1981L55.9267 16.7438ZM56.5153 14.9698L54.702 14.1261L54.6919 14.1477L54.6824 14.1696L56.5153 14.9698ZM59.3675 11.0735L60.7197 12.5472L60.7197 12.5472L59.3675 11.0735ZM63.4942 8.56623L62.8093 6.68716L62.8093 6.68716L63.4942 8.56623ZM68.2663 7.83L68.3531 5.83188L68.3531 5.83188L68.2663 7.83ZM72.9567 8.97705L73.8019 7.16441L73.8019 7.16441L72.9567 8.97705ZM76.8506 11.8326L75.3758 13.1835L75.3758 13.1835L76.8506 11.8326ZM79.3543 15.9613L77.4747 16.6446L77.4747 16.6446L79.3543 15.9613ZM80.0865 20.7341L78.0885 20.6457L78.0885 20.6457L80.0865 20.7341ZM78.9355 25.4236L80.6606 26.4355L80.7078 26.3549L80.7474 26.2703L78.9355 25.4236ZM74.8421 30.8288L76.2688 32.2304L76.2764 32.2228L76.2838 32.215L74.8421 30.8288ZM54.5951 51.4373L53.1685 52.8389L54.5951 54.2911L56.0218 52.8389L54.5951 51.4373ZM34.3481 30.8287L32.9068 32.2153L32.9141 32.2229L32.9214 32.2304L34.3481 30.8287ZM30.2548 25.4236L28.4445 26.2738L28.4833 26.3564L28.5294 26.4351L30.2548 25.4236ZM29.1009 20.7362L27.1028 20.8234L27.1028 20.8234L29.1009 20.7362ZM27.4389 77.7368L28.2841 79.5494L28.3646 79.5119L28.4415 79.4673L27.4389 77.7368ZM17.981 78.1499L17.297 80.0293L17.297 80.0293L17.981 78.1499ZM11.0012 71.7543L12.8138 70.909L12.8138 70.909L11.0012 71.7543ZM10.5881 62.2964L8.70871 61.6124L8.70871 61.6124L10.5881 62.2964ZM16.9837 55.3166L16.1837 53.4836L16.1609 53.4935L16.1385 53.504L16.9837 55.3166ZM18.7578 54.7279L19.2122 56.6756L19.2279 56.6719L19.2436 56.668L18.7578 54.7279ZM19.5064 54.2409L17.9298 53.0104L17.9298 53.0104L19.5064 54.2409ZM19.5064 52.5519L17.9298 53.7824L17.9298 53.7824L19.5064 52.5519ZM18.7578 52.0649L19.2436 50.1248L19.2271 50.1206L19.2105 50.1168L18.7578 52.0649ZM16.9865 51.4762L16.1428 53.2895L16.1628 53.2989L16.1831 53.3078L16.9865 51.4762ZM10.5819 44.4974L12.461 43.8125L12.461 43.8125L10.5819 44.4974ZM9.84578 39.7253L11.8439 39.8121L11.8439 39.8121L9.84578 39.7253ZM10.9928 35.035L12.8055 35.8802L12.8055 35.8802L10.9928 35.035ZM13.8482 31.1413L12.4973 29.6665L12.4973 29.6665L13.8482 31.1413ZM27.4389 29.056L28.4425 27.3261L28.3658 27.2816L28.2855 27.2441L27.4389 29.056ZM32.4066 32.7709L33.8333 31.3693L33.8082 31.3437L33.7823 31.3191L32.4066 32.7709ZM52.6704 53.3964L54.0971 54.7981L55.4741 53.3964L54.0971 51.9948L52.6704 53.3964ZM32.4066 74.022L33.7831 75.473L33.8086 75.4488L33.8333 75.4237L32.4066 74.022ZM72.9523 97.8063L73.7951 99.62L73.7995 99.618L72.9523 97.8063ZM63.4969 98.2128L64.181 96.3334L64.181 96.3334L63.4969 98.2128ZM56.5153 91.8232L54.6826 92.624L54.6929 92.6475L54.7038 92.6707L56.5153 91.8232ZM55.9267 90.0505L57.8743 89.5959L57.8709 89.5815L57.8674 89.5671L55.9267 90.0505ZM53.2636 90.0505L51.3229 89.5671L51.3193 89.5815L51.3159 89.596L53.2636 90.0505ZM52.6749 91.8232L54.4875 92.6685L54.4979 92.6463L54.5076 92.624L52.6749 91.8232ZM49.8211 95.7152L48.47 94.2406L48.4699 94.2406L49.8211 95.7152ZM45.6951 98.2188L45.0111 96.3394L45.0111 96.3394L45.6951 98.2188ZM36.2373 97.8057L37.0825 95.9931L37.0825 95.9931L36.2373 97.8057ZM29.8417 90.8259L27.9623 91.5099L27.9623 91.5099L29.8417 90.8259ZM30.2548 81.368L28.5301 80.3554L28.4822 80.437L28.4422 80.5227L30.2548 81.368ZM34.3587 75.9533L32.932 74.5516L32.9248 74.559L32.9176 74.5665L34.3587 75.9533ZM54.5951 55.3556L56.0218 53.954L54.5951 52.5018L53.1685 53.954L54.5951 55.3556ZM74.8316 75.9533L76.2729 74.5667L76.2656 74.5591L76.2582 74.5516L74.8316 75.9533ZM78.9355 81.3693L80.749 80.5262L80.7087 80.4394L80.6602 80.3568L78.9355 81.3693ZM98.1884 71.7536L96.3758 70.9083L96.3757 70.9085L98.1884 71.7536ZM95.3346 75.646L96.6858 77.1205L96.6858 77.1205L95.3346 75.646ZM91.2085 78.1499L91.8925 80.0293L91.8925 80.0293L91.2085 78.1499ZM86.4382 78.8841L86.5255 76.886L86.5255 76.886L86.4382 78.8841ZM81.7501 77.7368L80.7467 79.4669L80.8239 79.5117L80.9047 79.5494L81.7501 77.7368ZM76.7836 74.022L75.357 75.4237L75.3818 75.4489L75.4074 75.4733L76.7836 74.022ZM56.5198 53.3964L55.0932 51.9948L53.7161 53.3964L55.0932 54.7981L56.5198 53.3964ZM76.7836 32.771L75.408 31.3192L75.382 31.3438L75.357 31.3693L76.7836 32.771ZM81.7514 29.056L80.9062 27.2434L80.8252 27.2812L80.7478 27.3261L81.7514 29.056ZM91.2091 28.6434L91.8932 26.7641L91.8932 26.7641L91.2091 28.6434ZM95.3348 31.1472L96.686 29.6727L96.686 29.6727L95.3348 31.1472ZM98.1884 35.0392L96.3757 35.8844L96.3757 35.8844L98.1884 35.0392ZM99.3353 39.727L101.333 39.6398L101.333 39.6398L99.3353 39.727ZM98.601 44.4969L96.7216 43.8128L96.7216 43.8128L98.601 44.4969ZM96.0972 48.6226L97.5718 49.9739L97.5718 49.9739L96.0972 48.6226ZM92.2052 51.4762L93.0054 53.3092L93.028 53.2993L93.0504 53.2888L92.2052 51.4762ZM90.4312 52.0649L89.9768 50.1171L89.961 50.1208L89.9453 50.1248L90.4312 52.0649ZM89.6825 52.5519L91.2592 53.7824L91.2592 53.7823L89.6825 52.5519ZM89.6825 54.2409L91.2592 53.0104L91.2592 53.0104L89.6825 54.2409ZM90.4312 54.7279L89.9453 56.668L89.9606 56.6718L89.976 56.6754L90.4312 54.7279ZM92.2052 55.3166L93.0503 53.5039L93.0276 53.4933L93.0046 53.4833L92.2052 55.3166ZM96.0974 58.17L94.6229 59.5213L94.6229 59.5213L96.0974 58.17ZM98.6013 62.2958L96.7219 62.9799L96.7219 62.9799L98.6013 62.2958ZM99.3355 67.0658L101.334 67.153L101.334 67.153L99.3355 67.0658ZM31.7211 16.6502C32.4226 14.7231 33.6798 13.0474 35.3337 11.8348L32.9686 8.6089C30.6767 10.2893 28.9345 12.6115 27.9624 15.2819L31.7211 16.6502ZM35.3337 11.8348C36.9876 10.6222 38.9639 9.92726 41.0127 9.83786L40.8383 5.84167C37.9991 5.96555 35.2605 6.92855 32.9686 8.6089L35.3337 11.8348ZM41.0127 9.83786C43.0615 9.74847 45.0908 10.2686 46.8441 11.3325L48.9192 7.91292C46.4897 6.43858 43.6775 5.71778 40.8383 5.84167L41.0127 9.83786ZM46.8441 11.3325C48.5973 12.3964 49.9956 13.9564 50.8623 15.815L54.4876 14.1245C53.2865 11.5489 51.3487 9.38726 48.9192 7.91292L46.8441 11.3325ZM50.842 15.77C51.0431 16.2306 51.2017 16.7086 51.3159 17.1981L55.2113 16.2895C55.0418 15.5629 54.8064 14.8533 54.5079 14.1696L50.842 15.77ZM51.3235 17.2296C51.5061 17.959 51.9273 18.6065 52.5201 19.0691L54.9811 15.9158C55.0914 16.0019 55.1697 16.1223 55.2037 16.258L51.3235 17.2296ZM52.5201 19.0691C53.1128 19.5318 53.8432 19.783 54.5951 19.783L54.5951 15.783C54.735 15.783 54.8708 15.8298 54.9811 15.9158L52.5201 19.0691ZM54.5951 19.783C55.347 19.783 56.0774 19.5318 56.6702 19.0691L54.2092 15.9158C54.3194 15.8298 54.4553 15.783 54.5951 15.783L54.5951 19.783ZM56.6702 19.0691C57.263 18.6065 57.6841 17.959 57.8668 17.2296L53.9866 16.258C54.0205 16.1223 54.0989 16.0019 54.2091 15.9158L56.6702 19.0691ZM57.8744 17.1981C57.9885 16.7086 58.1472 16.2306 58.3483 15.77L54.6824 14.1696C54.3839 14.8533 54.1484 15.5629 53.9789 16.2895L57.8744 17.1981ZM58.3287 15.8134C58.9034 14.5782 59.7158 13.4683 60.7197 12.5472L58.0153 9.59988C56.6243 10.8763 55.4983 12.4144 54.702 14.1261L58.3287 15.8134ZM60.7197 12.5472C61.7235 11.6261 62.899 10.9119 64.1791 10.4453L62.8093 6.68716C61.0354 7.33369 59.4064 8.32346 58.0153 9.59988L60.7197 12.5472ZM64.1791 10.4453C65.4591 9.97875 66.8185 9.76903 68.1796 9.82812L68.3531 5.83188C66.4669 5.75 64.5831 6.04062 62.8093 6.68716L64.1791 10.4453ZM68.1796 9.82812C69.5407 9.88721 70.8768 10.214 72.1116 10.7897L73.8019 7.16441C72.0908 6.36657 70.2393 5.91377 68.3531 5.83188L68.1796 9.82812ZM72.1116 10.7897C73.3463 11.3654 74.4555 12.1788 75.3758 13.1835L78.3254 10.4816C77.0501 9.08946 75.513 7.96224 73.8019 7.16441L72.1116 10.7897ZM75.3758 13.1835C76.296 14.1881 77.0092 15.3642 77.4747 16.6446L81.234 15.278C80.589 13.5037 79.6006 11.8738 78.3254 10.4816L75.3758 13.1835ZM77.4747 16.6446C77.9401 17.925 78.1487 19.2846 78.0885 20.6457L82.0845 20.8226C82.168 18.9365 81.879 17.0524 81.234 15.278L77.4747 16.6446ZM78.0885 20.6457C78.0282 22.0067 77.7003 23.3426 77.1235 24.5768L80.7474 26.2703C81.5467 24.5599 82.0011 22.7087 82.0845 20.8226L78.0885 20.6457ZM77.2104 24.4116C76.1423 26.2324 74.8635 27.921 73.4005 29.4426L76.2838 32.215C77.9646 30.467 79.4336 28.5271 80.6606 26.4355L77.2104 24.4116ZM73.4155 29.4272L53.1685 50.0356L56.0218 52.8389L76.2688 32.2304L73.4155 29.4272ZM56.0218 50.0356L35.7748 29.4271L32.9214 32.2304L53.1685 52.8389L56.0218 50.0356ZM35.7894 29.4421C34.3262 27.9212 33.0476 26.2328 31.9801 24.4121L28.5294 26.4351C29.756 28.5273 31.2253 30.4675 32.9068 32.2153L35.7894 29.4421ZM32.0651 24.5733C31.4867 23.3419 31.1584 22.0081 31.099 20.6489L27.1028 20.8234C27.1853 22.7111 27.6413 24.5636 28.4445 26.2738L32.0651 24.5733ZM31.099 20.6489C31.0397 19.2898 31.2505 17.9324 31.7193 16.6553L27.9643 15.2769C27.3132 17.0506 27.0204 18.9358 27.1028 20.8234L31.099 20.6489ZM26.5936 75.9242C25.3595 76.4997 24.0241 76.8265 22.6637 76.8859L22.8383 80.8821C24.7235 80.7997 26.574 80.3469 28.2841 79.5494L26.5936 75.9242ZM22.6637 76.8859C21.3034 76.9453 19.9446 76.7362 18.665 76.2705L17.297 80.0293C19.0702 80.6746 20.9531 80.9644 22.8383 80.8821L22.6637 76.8859ZM18.665 76.2705C16.0808 75.3299 13.9761 73.4014 12.8138 70.909L9.18859 72.5995C10.7992 76.0534 13.7159 78.7259 17.297 80.0293L18.665 76.2705ZM12.8138 70.909C11.6515 68.4166 11.527 65.5646 12.4675 62.9804L8.70871 61.6124C7.40535 65.1935 7.57797 69.1457 9.18859 72.5995L12.8138 70.909ZM12.4675 62.9804C13.408 60.3962 15.3366 58.2914 17.829 57.1292L16.1385 53.504C12.6846 55.1146 10.0121 58.0313 8.70871 61.6124L12.4675 62.9804ZM17.7838 57.1496C18.2445 56.9485 18.7226 56.7898 19.2122 56.6756L18.3033 52.7802C17.5769 52.9497 16.8674 53.1852 16.1837 53.4836L17.7838 57.1496ZM19.2436 56.668C19.973 56.4854 20.6205 56.0642 21.0831 55.4714L17.9298 53.0104C18.0158 52.9002 18.1362 52.8218 18.2719 52.7878L19.2436 56.668ZM21.0831 55.4714C21.5457 54.8787 21.797 54.1483 21.797 53.3964L17.797 53.3964C17.797 53.2565 17.8437 53.1207 17.9298 53.0104L21.0831 55.4714ZM21.797 53.3964C21.797 52.6445 21.5457 51.9141 21.0831 51.3213L17.9298 53.7824C17.8437 53.6721 17.797 53.5362 17.797 53.3964L21.797 53.3964ZM21.0831 51.3214C20.6204 50.7286 19.973 50.3074 19.2436 50.1248L18.2719 54.0049C18.1363 53.971 18.0158 53.8926 17.9298 53.7824L21.0831 51.3214ZM19.2105 50.1168C18.7234 50.0036 18.2478 49.8455 17.7898 49.6446L16.1831 53.3078C16.8671 53.6078 17.5775 53.8439 18.305 54.0129L19.2105 50.1168ZM17.8302 49.6629C16.5944 49.0879 15.4833 48.2752 14.5627 47.2718L11.6154 49.9761C12.8922 51.3677 14.4317 52.4934 16.1428 53.2895L17.8302 49.6629ZM14.5627 47.2718C13.6417 46.268 12.9275 45.0925 12.461 43.8125L8.70283 45.1822C9.34932 46.956 10.339 48.585 11.6154 49.9761L14.5627 47.2718ZM12.461 43.8125C11.9945 42.5325 11.7848 41.1731 11.8439 39.8121L7.84766 39.6385C7.76576 41.5247 8.05635 43.4084 8.70283 45.1822L12.461 43.8125ZM11.8439 39.8121C11.903 38.451 12.2297 37.1149 12.8055 35.8802L9.18017 34.1898C8.38236 35.9009 7.92957 37.7524 7.84766 39.6385L11.8439 39.8121ZM12.8055 35.8802C13.3812 34.6454 14.1946 33.5363 15.1992 32.6161L12.4973 29.6665C11.1052 30.9417 9.97798 32.4788 9.18017 34.1898L12.8055 35.8802ZM15.1992 32.6161C16.2037 31.6958 17.3798 30.9826 18.6602 30.5171L17.2935 26.7578C15.5192 27.4029 13.8894 28.3913 12.4973 29.6665L15.1992 32.6161ZM18.6602 30.5171C19.9406 30.0516 21.3001 29.843 22.6611 29.9033L22.8379 25.9072C20.9518 25.8237 19.0678 26.1128 17.2935 26.7578L18.6602 30.5171ZM22.6611 29.9033C24.0221 29.9635 25.358 30.2913 26.5922 30.868L28.2855 27.2441C26.5751 26.4449 24.724 25.9906 22.8379 25.9072L22.6611 29.9033ZM26.4352 30.786C28.0954 31.7491 29.6378 32.9025 31.031 34.2227L33.7823 31.3191C32.1635 29.7852 30.3715 28.4452 28.4425 27.3261L26.4352 30.786ZM30.98 34.1725L51.2437 54.7981L54.0971 51.9948L33.8333 31.3693L30.98 34.1725ZM51.2437 51.9948L30.98 72.6204L33.8333 75.4237L54.0971 54.7981L51.2437 51.9948ZM31.0302 72.571C29.6382 73.8915 28.0964 75.0444 26.4362 76.0063L28.4415 79.4673C30.3718 78.349 32.1646 77.0084 33.7831 75.473L31.0302 72.571ZM72.1094 95.9926C69.616 97.1513 66.7647 97.2739 64.181 96.3334L62.8128 100.092C66.3917 101.395 70.3412 101.225 73.7951 99.62L72.1094 95.9926ZM64.181 96.3334C61.5973 95.3929 59.492 93.4662 58.3269 90.9757L54.7038 92.6707C56.3177 96.1205 59.2339 98.7894 62.8128 100.092L64.181 96.3334ZM58.348 91.0224C58.147 90.5623 57.9884 90.0849 57.8743 89.5959L53.979 90.5051C54.1485 91.2314 54.384 91.9406 54.6826 92.624L58.348 91.0224ZM57.8674 89.5671C57.6855 88.8369 57.2646 88.1885 56.6716 87.7251L54.2086 90.8768C54.0982 90.7906 54.0198 90.6698 53.986 90.5339L57.8674 89.5671ZM56.6716 87.7251C56.0786 87.2617 55.3477 87.01 54.5951 87.01L54.5951 91.01C54.455 91.01 54.319 90.9631 54.2086 90.8768L56.6716 87.7251ZM54.5951 87.01C53.8426 87.01 53.1116 87.2617 52.5187 87.7251L54.9817 90.8768C54.8713 90.9631 54.7352 91.01 54.5951 91.01L54.5951 87.01ZM52.5187 87.7251C51.9257 88.1885 51.5048 88.8369 51.3229 89.5671L55.2043 90.5339C55.1704 90.6698 55.0921 90.7906 54.9817 90.8768L52.5187 87.7251ZM51.3159 89.596C51.2018 90.0849 51.0433 90.5623 50.8422 91.0224L54.5076 92.624C54.8062 91.9406 55.0417 91.2314 55.2113 90.5051L51.3159 89.596ZM50.8623 90.9779C50.2868 92.212 49.4739 93.3207 48.47 94.2406L51.1723 97.1897C52.5635 95.915 53.69 94.3786 54.4875 92.6685L50.8623 90.9779ZM48.4699 94.2406C47.466 95.1605 46.2907 95.8737 45.0111 96.3394L46.3791 100.098C48.1523 99.4528 49.781 98.4645 51.1723 97.1897L48.4699 94.2406ZM45.0111 96.3394C43.7315 96.8051 42.3728 97.0142 41.0124 96.9548L40.8378 100.951C42.723 101.033 44.6059 100.744 46.3791 100.098L45.0111 96.3394ZM41.0124 96.9548C39.652 96.8953 38.3166 96.5686 37.0825 95.9931L35.392 99.6183C37.1022 100.416 38.9527 100.869 40.8378 100.951L41.0124 96.9548ZM37.0825 95.9931C34.5902 94.8308 32.6616 92.7261 31.7211 90.1418L27.9623 91.5099C29.2656 95.091 31.9382 98.0076 35.392 99.6183L37.0825 95.9931ZM31.7211 90.1418C31.2554 88.8623 31.0463 87.5035 31.1057 86.1431L27.1095 85.9686C27.0272 87.8537 27.3169 89.7367 27.9623 91.5099L31.7211 90.1418ZM31.1057 86.1431C31.1651 84.7827 31.4919 83.4474 32.0674 82.2133L28.4422 80.5227C27.6447 82.2329 27.1918 84.0834 27.1095 85.9686L31.1057 86.1431ZM31.9795 82.3806C33.0506 80.5562 34.3328 78.8644 35.7997 77.3401L32.9176 74.5665C31.2328 76.3171 29.7602 78.2602 28.5301 80.3554L31.9795 82.3806ZM35.7853 77.3549L56.0218 56.7573L53.1685 53.954L32.932 74.5516L35.7853 77.3549ZM53.1685 56.7573L73.4049 77.3549L76.2582 74.5516L56.0218 53.954L53.1685 56.7573ZM73.3902 77.3398C74.8572 78.8647 76.1395 80.5571 77.2107 82.3818L80.6602 80.3568C79.4301 78.2613 77.9575 76.3179 76.2729 74.5667L73.3902 77.3398ZM77.1219 82.2125C78.281 84.7058 78.4039 87.5572 77.4633 90.1409L81.2221 91.5091C82.5249 87.9299 82.3548 83.9801 80.749 80.5262L77.1219 82.2125ZM77.4633 90.1409C76.5228 92.7247 74.5958 94.8299 72.1051 95.9946L73.7995 99.618C77.2498 98.0045 79.9192 95.0883 81.2221 91.5091L77.4633 90.1409ZM96.3757 70.9085C95.8003 72.1427 94.9874 73.2515 93.9834 74.1715L96.6858 77.1205C98.0771 75.8456 99.2036 74.3091 100.001 72.5988L96.3757 70.9085ZM93.9834 74.1715C92.9794 75.0915 91.8041 75.8048 90.5244 76.2706L91.8925 80.0293C93.6658 79.3839 95.2946 78.3955 96.6858 77.1205L93.9834 74.1715ZM90.5244 76.2706C89.2448 76.7363 87.8859 76.9455 86.5255 76.886L86.3509 80.8822C88.2362 80.9646 90.1192 80.6748 91.8925 80.0293L90.5244 76.2706ZM86.5255 76.886C85.165 76.8266 83.8295 76.4998 82.5954 75.9242L80.9047 79.5494C82.615 80.347 84.4656 80.7999 86.3509 80.8822L86.5255 76.886ZM82.7534 76.0067C81.0937 75.0441 79.5521 73.891 78.1598 72.5708L75.4074 75.4733C77.0256 77.0078 78.8175 78.3481 80.7467 79.4669L82.7534 76.0067ZM78.2103 72.6204L57.9465 51.9948L55.0932 54.7981L75.357 75.4237L78.2103 72.6204ZM57.9465 54.7981L78.2103 34.1726L75.357 31.3693L55.0932 51.9948L57.9465 54.7981ZM78.1593 34.2227C79.5525 32.9025 81.0948 31.7492 82.755 30.786L80.7478 27.3261C78.8188 28.4452 77.0268 29.7853 75.408 31.3192L78.1593 34.2227ZM82.5966 30.8687C85.0889 29.7066 87.9409 29.5822 90.525 30.5228L91.8932 26.7641C88.3122 25.4606 84.3601 25.633 80.9062 27.2434L82.5966 30.8687ZM90.525 30.5228C91.8045 30.9885 92.9797 31.7017 93.9836 32.6217L96.686 29.6727C95.2949 28.3978 93.6663 27.4095 91.8932 26.7641L90.525 30.5228ZM93.9836 32.6217C94.9875 33.5416 95.8003 34.6503 96.3757 35.8844L100.001 34.1941C99.2036 32.4839 98.0772 30.9475 96.686 29.6727L93.9836 32.6217ZM96.3757 35.8844C96.9511 37.1185 97.2779 38.4538 97.3372 39.8142L101.333 39.6398C101.251 37.7547 100.798 35.9042 100.001 34.194L96.3757 35.8844ZM97.3372 39.8142C97.3966 41.1745 97.1874 42.5333 96.7216 43.8128L100.48 45.181C101.126 43.4079 101.416 41.525 101.333 39.6398L97.3372 39.8142ZM96.7216 43.8128C96.2559 45.0923 95.5427 46.2675 94.6227 47.2714L97.5718 49.9739C98.8466 48.5827 99.8349 46.9541 100.48 45.181L96.7216 43.8128ZM94.6227 47.2714C93.7028 48.2753 92.5941 49.0881 91.36 49.6636L93.0504 53.2888C94.7605 52.4914 96.2969 51.365 97.5718 49.9739L94.6227 47.2714ZM91.405 49.6432C90.9444 49.8443 90.4663 50.003 89.9768 50.1171L90.8855 54.0126C91.612 53.8431 92.3216 53.6076 93.0054 53.3092L91.405 49.6432ZM89.9453 50.1248C89.2159 50.3074 88.5685 50.7286 88.1058 51.3214L91.2592 53.7823C91.1731 53.8927 91.0527 53.971 90.917 54.0049L89.9453 50.1248ZM88.1059 51.3213C87.6433 51.9141 87.392 52.6444 87.392 53.3964L91.392 53.3964C91.392 53.5363 91.3452 53.6721 91.2592 53.7824L88.1059 51.3213ZM87.392 53.3964C87.392 54.1483 87.6433 54.8787 88.1059 55.4714L91.2592 53.0104C91.3452 53.1206 91.392 53.2565 91.392 53.3964L87.392 53.3964ZM88.1058 55.4714C88.5685 56.0642 89.2159 56.4854 89.9453 56.668L90.917 52.7878C91.0527 52.8218 91.1731 52.9002 91.2592 53.0104L88.1058 55.4714ZM89.976 56.6754C90.466 56.7899 90.9445 56.9487 91.4058 57.1499L93.0046 53.4833C92.3213 53.1853 91.6122 52.95 90.8863 52.7804L89.976 56.6754ZM91.3601 57.1293C92.5943 57.7046 93.703 58.5174 94.6229 59.5213L97.5719 56.8188C96.297 55.4276 94.7605 54.3012 93.0503 53.5039L91.3601 57.1293ZM94.6229 59.5213C95.5429 60.5252 96.2562 61.7004 96.7219 62.9799L100.481 61.6117C99.8352 59.8386 98.8468 58.2099 97.5719 56.8187L94.6229 59.5213ZM96.7219 62.9799C97.1877 64.2594 97.3968 65.6182 97.3374 66.9785L101.334 67.153C101.416 65.2678 101.126 63.3849 100.481 61.6117L96.7219 62.9799ZM97.3374 66.9785C97.278 68.3389 96.9513 69.6743 96.3758 70.9083L100.001 72.5989C100.798 70.8887 101.251 69.0382 101.334 67.153L97.3374 66.9785Z" fill="#F2F2F2" mask="url(#path-1-inside-1)"/>
</svg>
